<?xml version="1.0" encoding="utf-8"?>
<!-- Generator: Adobe Illustrator 21.0.0, SVG Export Plug-In . SVG Version: 6.00 Build 0)  -->
<svg version="1.1" id="Layer_1" xmlns:sketch="http://www.bohemiancoding.com/sketch/ns"
	 xmlns="http://www.w3.org/2000/svg" xmlns:xlink="http://www.w3.org/1999/xlink" x="0px" y="0px" viewBox="0 0 46 46"
	 style="enable-background:new 0 0 46 46;" xml:space="preserve">
<style type="text/css">
	.st0{fill:#4285F4;}
	.st1{fill:#34A853;}
	.st2{fill:#FBBC05;}
	.st3{fill:#EA4335;}
</style>
<path id="Shape" sketch:type="MSShapeGroup" class="st0" d="M45.5,23.5c0-1.6-0.1-3.2-0.4-4.7H23.5v8.9h12.4
	c-0.5,2.9-2.2,5.3-4.6,6.9v5.8h7.4C43,36.4,45.5,30.5,45.5,23.5L45.5,23.5z"/>
<path id="Shape_1_" sketch:type="MSShapeGroup" class="st1" d="M23.5,46c6.2,0,11.4-2.1,15.2-5.6l-7.4-5.8c-2.1,1.4-4.7,2.2-7.8,2.2
	c-6,0-11.1-4-12.9-9.5H2.9v6C6.7,40.8,14.5,46,23.5,46L23.5,46z"/>
<path id="Shape_2_" sketch:type="MSShapeGroup" class="st2" d="M10.6,27.4C10.1,26,9.9,24.5,9.9,23s0.3-3,0.7-4.4v-6H2.9
	C1.3,15.8,0.5,19.3,0.5,23s0.9,7.2,2.4,10.3L10.6,27.4L10.6,27.4z"/>
<path id="Shape_3_" sketch:type="MSShapeGroup" class="st3" d="M23.5,9.1c3.4,0,6.4,1.2,8.8,3.4L38.8,6c-4-3.7-9.2-6-15.4-6
	c-9,0-16.8,5.2-20.6,12.7l7.7,6C12.4,13.2,17.5,9.1,23.5,9.1L23.5,9.1z"/>
</svg>
